<svg xmlns="http://www.w3.org/2000/svg" width="40" height="40" viewBox="0 0 40 40">
  <g id="qr-code" transform="translate(0 -0.332)">
    <path id="Path_4" data-name="Path 4" d="M77.289,76.84V87.694a.785.785,0,0,0,.785.785H88.928a.785.785,0,0,0,.785-.785V85.635a.785.785,0,1,0-1.569,0v1.273H78.859V77.624h9.285v1.889a.785.785,0,1,0,1.569,0V76.84a.785.785,0,0,0-.785-.785H78.074a.785.785,0,0,0-.785.785Zm0,0" transform="translate(-72.456 -70.988)" fill="#fff"/>
    <path id="Path_5" data-name="Path 5" d="M138.828,136.8a.784.784,0,0,0-.785.785v3.256a.785.785,0,0,0,.785.785h3.256a.785.785,0,0,0,.785-.785V137.59a.785.785,0,0,0-.785-.785Zm2.472,3.256h-1.687v-1.687H141.3Zm0,0" transform="translate(-129.416 -127.936)" fill="#fff"/>
    <path id="Path_6" data-name="Path 6" d="M88.928,364.344H78.074a.785.785,0,0,0-.785.785v10.854a.785.785,0,0,0,.785.785H88.928a.785.785,0,0,0,.785-.785V365.129A.785.785,0,0,0,88.928,364.344ZM88.143,375.2H78.859v-9.285h9.285Zm0,0" transform="translate(-72.456 -341.237)" fill="#fff"/>
    <path id="Path_7" data-name="Path 7" d="M367.234,88.478h10.854a.785.785,0,0,0,.785-.785V76.839a.785.785,0,0,0-.785-.785H367.234a.785.785,0,0,0-.785.785V87.693A.785.785,0,0,0,367.234,88.478Zm.785-10.854H377.3v9.285h-9.285Zm0,0" transform="translate(-343.556 -70.987)" fill="#fff"/>
    <path id="Path_8" data-name="Path 8" d="M378.873,375.983V365.129a.785.785,0,0,0-.785-.785H367.234a.785.785,0,0,0-.785.785v10.854a.785.785,0,0,0,.785.785h10.854A.785.785,0,0,0,378.873,375.983Zm-1.57-.785h-9.285v-9.284H377.3Zm0,0" transform="translate(-343.556 -341.237)" fill="#fff"/>
    <path id="Path_9" data-name="Path 9" d="M154.851,90.815a.785.785,0,0,0,0-1.57h-13.76V75.45a.785.785,0,1,0-1.57,0v13.8H129.105a.785.785,0,0,0,0,1.57h10.416v13.614a.785.785,0,1,0,1.57,0V90.815Zm0,0" transform="translate(-120.318 -69.684)" fill="#fff"/>
    <path id="Path_10" data-name="Path 10" d="M138.828,430.853h3.256a.785.785,0,0,0,.785-.785v-3.256a.785.785,0,0,0-.785-.785h-3.256a.784.784,0,0,0-.785.785v3.256A.785.785,0,0,0,138.828,430.853Zm.785-3.256H141.3v1.687h-1.687Zm0,0" transform="translate(-129.416 -399.066)" fill="#fff"/>
    <path id="Path_11" data-name="Path 11" d="M431.236,136.8H427.98a.785.785,0,0,0-.785.785v3.256a.785.785,0,0,0,.785.785h3.256a.785.785,0,0,0,.785-.785V137.59A.785.785,0,0,0,431.236,136.8Zm-.785,3.256h-1.686v-1.687h1.686Zm0,0" transform="translate(-400.497 -127.936)" fill="#fff"/>
    <path id="Path_12" data-name="Path 12" d="M427.98,430.853h3.256a.785.785,0,0,0,.785-.785v-3.256a.785.785,0,0,0-.785-.785H427.98a.785.785,0,0,0-.785.785v3.256A.785.785,0,0,0,427.98,430.853Zm.785-3.256h1.686v1.687h-1.686Zm0,0" transform="translate(-400.497 -399.066)" fill="#fff"/>
    <path id="Path_13" data-name="Path 13" d="M77.6,307.478l-.042.01a.785.785,0,1,0,.36,1.528l.042-.01a.785.785,0,0,0-.36-1.528Zm0,0" transform="translate(-72.139 -287.913)" fill="#fff"/>
    <path id="Path_14" data-name="Path 14" d="M251.169,167.476l-.042.01a.785.785,0,0,0,.179,1.549.775.775,0,0,0,.18-.021l.042-.01a.785.785,0,0,0-.358-1.528Zm0,0" transform="translate(-234.864 -156.669)" fill="#fff"/>
    <path id="Path_15" data-name="Path 15" d="M.785,6.76a.784.784,0,0,0,.785-.785V1.9H5.5A.785.785,0,1,0,5.5.332H.785A.785.785,0,0,0,0,1.117V5.976a.785.785,0,0,0,.785.785Zm0,0" fill="#fff"/>
    <path id="Path_16" data-name="Path 16" d="M545.066.332h-4.711a.785.785,0,1,0,0,1.569h3.926V5.976a.785.785,0,0,0,1.57,0V1.117a.785.785,0,0,0-.785-.785Zm0,0" transform="translate(-505.85 0)" fill="#fff"/>
    <path id="Path_17" data-name="Path 17" d="M5.5,541.862H1.569v-4.074a.785.785,0,0,0-1.569,0v4.859a.785.785,0,0,0,.785.785H5.5a.785.785,0,1,0,0-1.57Zm0,0" transform="translate(0 -503.1)" fill="#fff"/>
    <path id="Path_18" data-name="Path 18" d="M545.066,537a.785.785,0,0,0-.785.785v4.074h-3.926a.785.785,0,1,0,0,1.57h4.711a.785.785,0,0,0,.784-.785v-4.859A.785.785,0,0,0,545.066,537Zm0,0" transform="translate(-505.851 -503.1)" fill="#fff"/>
  </g>
</svg>
