<svg xmlns="http://www.w3.org/2000/svg" width="185" height="64" viewBox="0 0 185 64">
  <g id="Group_2341" data-name="Group 2341" transform="translate(-543 1500)">
    <path id="Path_426" data-name="Path 426" d="M119.915-25.657c6.155,0,10.142-6.241,10.142-11.616v-1.646h-1.822c-5.547,0-14.995.866-14.995,7.454,0,2.948,2.255,5.808,6.675,5.808m8.235-19.937h1.82v-1.04c0-5.807-3.729-7.8-8.236-7.8a19.959,19.959,0,0,0-9.186,2.514c-2.168.954-3.815.607-4.856-1.474l-.866-1.646c-1.04-1.993-.694-3.726,1.386-4.854a31.392,31.392,0,0,1,14.475-3.641c11.444,0,18.29,6.415,18.29,17.6v24.01q0,3.641-3.641,3.641h-2.946c-2.339,0-3.555-1.214-3.555-3.641v-1.734a8.582,8.582,0,0,1,.175-1.906h-.175s-4.159,8.321-13.868,8.321c-8.061,0-14.649-5.2-14.649-13.263,0-12.915,15.948-15.083,25.832-15.083" transform="translate(514.718 -1418.752)" fill="#fff"/>
    <path id="Path_427" data-name="Path 427" d="M160.384-59.4h-2.168c-2.342,0-3.554-1.21-3.554-3.631v-1.471c0-2.334,1.212-3.631,3.554-3.631h2.168v-2.075c0-14.007,12.395-16.169,16.9-16.169h1.3c2.342,0,3.554,1.211,3.554,3.632V-80.5c0,2.335-1.3,3.373-3.726,3.545-2.688.173-7.021.778-7.021,7.176v1.643h5.893c2.34,0,3.555,1.3,3.555,3.631v1.471c0,2.421-1.214,3.631-3.555,3.631h-5.893v31.127c0,2.421-1.3,3.632-3.641,3.632h-3.815c-2.339,0-3.552-1.211-3.552-3.632Z" transform="translate(500.304 -1412.396)" fill="#fff"/>
    <path id="Path_428" data-name="Path 428" d="M196.534-64.98c0-2.335,1.214-3.632,3.554-3.632H203.9c2.339,0,3.554,1.3,3.554,3.632v36.833c0,2.421-1.214,3.632-3.554,3.632h-3.816c-2.339,0-3.554-1.211-3.554-3.632Zm0-14.7v-2.593c0-2.335,1.214-3.632,3.554-3.632H203.9a3.285,3.285,0,0,1,3.638,3.632v2.593c0,2.335-1.3,3.546-3.638,3.546h-3.816c-2.339,0-3.554-1.211-3.554-3.546" transform="translate(488.83 -1412.525)" fill="#fff"/>
    <path id="Path_429" data-name="Path 429" d="M218.78-58.6c0-2.341,1.214-3.641,3.554-3.641h3.38a3.29,3.29,0,0,1,3.641,3.641v4.16A18.463,18.463,0,0,1,229.1-51.4h.172C231-56.69,235.856-62.584,242.1-62.584c2.426,0,3.292,1.214,3.292,3.64v3.381c0,2.341-1.386,3.64-3.726,3.64-8.061,0-11.961,7.975-11.961,16.037v14.215c0,2.427-1.214,3.641-3.554,3.641h-3.816c-2.339,0-3.554-1.214-3.554-3.641Z" transform="translate(482.609 -1419.011)" fill="#fff"/>
    <path id="Path_430" data-name="Path 430" d="M206.36-86.154a6.357,6.357,0,0,0-9.079,0,6.357,6.357,0,0,0,0,9.079,6.357,6.357,0,0,0,9.079,0,6.357,6.357,0,0,0,0-9.079" transform="translate(489.141 -1411.939)" fill="#fff"/>
    <path id="Path_431" data-name="Path 431" d="M.192-79.623c-.759-3.2.758-5.131,4.048-5.131h5.987a4.677,4.677,0,0,1,5.06,4.122l6.747,33.477a34.751,34.751,0,0,1,.759,6.308h.168a33.16,33.16,0,0,1,1.012-6.308l8.265-33.562a4.81,4.81,0,0,1,5.144-4.037h3.626a4.674,4.674,0,0,1,5.06,4.037l8.1,33.562a33.116,33.116,0,0,1,1.011,6.308h.169a34.751,34.751,0,0,1,.759-6.308L63.44-80.717c.591-2.692,2.277-4.037,5.144-4.037h5.734c3.289,0,4.807,1.934,4.048,5.131L65.379-28.567c-.675,2.692-2.361,3.953-5.144,3.953h-8.18a4.809,4.809,0,0,1-5.143-4.037L40.333-54.979a51.174,51.174,0,0,1-1.181-7.065h-.168A51.173,51.173,0,0,1,37.8-54.979L31.226-28.651a4.811,4.811,0,0,1-5.144,4.037H17.733a4.81,4.81,0,0,1-5.144-4.037Z" transform="translate(543 -1412.837)" fill="#fff"/>
    <path id="Path_433" data-name="Path 433" d="M4.24-84.754c-3.289,0-4.807,1.934-4.048,5.131l12.4,50.972a4.81,4.81,0,0,0,5.143,4.037h8.349c.149,0,.294,0,.436-.012L23.046-41.963c-.072.713-.085,1.115-.085,1.115h-.168a32.121,32.121,0,0,0-.455-4.656l-4.459-22.27-2.592-12.86a4.676,4.676,0,0,0-5.059-4.121Z" transform="translate(543 -1412.837)" fill="#fff"/>
    <path id="Path_435" data-name="Path 435" d="M40.793-80.251l-8.265,33.56a33.306,33.306,0,0,0-1.012,6.3l3.258,16.235a4.79,4.79,0,0,0,5.007-4.036l6.577-26.325a51.054,51.054,0,0,0,1.181-7.066h.092l-5.324-21.47A5.574,5.574,0,0,0,40.793-80.251Z" transform="translate(534.444 -1413.3)" fill="#fff"/>
    <path id="Path_437" data-name="Path 437" d="M82.966-72.842l-6.314,28.96a34.928,34.928,0,0,0-.759,6.324H75.74l3.805,16.276h1.238a4.748,4.748,0,0,0,5.145-3.964L98.057-73.052ZM75.7-37.729l.021.088c0-.079-.012-.214-.025-.4Z" transform="translate(522.115 -1416.169)" fill="#fff"/>
  </g>
</svg>
